<svg version="1.1" id="Layer_1" xmlns="http://www.w3.org/2000/svg" xmlns:xlink="http://www.w3.org/1999/xlink" x="0px" y="0px"
	 width="100%" viewBox="0 0 1024 672" enable-background="new 0 0 1024 672" xml:space="preserve">
<path fill="#000000" opacity="1.000000" stroke="none" 
	d="
M315.892273,353.996399 
	C334.277008,365.748077 343.210754,382.812012 344.974854,403.669525 
	C346.872009,426.099579 342.708252,447.209015 328.252747,465.247040 
	C315.800934,480.784851 299.017822,489.690063 280.238251,495.121063 
	C265.619019,499.348907 250.668350,501.453888 235.409912,501.415802 
	C206.253189,501.343079 177.096115,501.427795 147.939240,501.391205 
	C135.334000,501.375397 127.677139,493.763855 127.673721,481.213715 
	C127.649887,393.742889 127.650009,306.272064 127.670792,218.801254 
	C127.673676,206.664291 135.569305,198.696747 147.616241,198.681412 
	C175.606812,198.645767 203.602219,198.378906 231.586502,198.806244 
	C251.134323,199.104752 270.407898,201.810074 288.614136,209.583954 
	C313.766327,220.323730 327.470154,239.108307 329.513885,266.645813 
	C331.796783,297.406555 316.854523,323.433289 289.242157,335.385010 
	C285.911072,336.826813 282.483032,338.044769 279.042969,339.885010 
	C291.833405,343.173187 304.429291,346.632294 315.892273,353.996399 
M219.459839,364.422516 
	C209.469116,364.430420 199.477051,364.341675 189.488144,364.480774 
	C182.999039,364.571136 182.315308,365.397400 182.312332,371.702881 
	C182.299805,398.345062 182.381683,424.987793 182.208542,451.628876 
	C182.179626,456.077850 183.315857,457.847290 188.070480,457.759369 
	C202.385818,457.494690 216.720795,458.013062 231.025436,457.540100 
	C241.983398,457.177826 252.873398,455.704376 263.254883,451.651245 
	C283.206360,443.861786 292.801910,428.024902 291.626923,404.535034 
	C290.734070,386.685791 279.491608,374.018402 259.529205,368.551758 
	C246.737610,365.048798 233.592926,364.658600 219.459839,364.422516 
M197.506241,322.664703 
	C211.789139,322.520264 226.138382,323.535706 240.276840,320.636292 
	C255.903610,317.431702 268.938721,310.818542 274.175507,294.204346 
	C276.170074,287.876312 275.977997,281.397186 275.658630,274.923767 
	C275.217102,265.974548 271.627502,258.536499 264.402100,253.065109 
	C255.410263,246.256058 244.823364,243.935410 233.956039,243.443192 
	C219.503906,242.788620 205.011963,243.064407 190.542053,242.728378 
	C183.275543,242.559616 182.310806,243.221191 182.308044,250.299774 
	C182.300522,269.603271 182.309326,288.906738 182.304596,308.210236 
	C182.301056,322.670013 182.296173,322.670013 197.506241,322.664703 
z"/>
<path fill="#000000" opacity="1.000000" stroke="none" 
	d="
M555.000000,245.095062 
	C540.167114,245.092545 525.833862,245.032562 511.501373,245.102997 
	C496.022308,245.179047 487.090546,255.222076 487.692108,270.626801 
	C488.231506,284.439301 487.905426,298.286743 487.908508,312.118774 
	C487.915253,342.451233 488.185364,372.787598 487.783447,403.114899 
	C487.452148,428.110260 487.390533,453.094177 487.868866,478.084198 
	C487.968414,483.284973 487.589172,488.470795 484.469360,492.932312 
	C480.710419,498.307709 475.669037,501.436615 468.915863,501.399841 
	C463.249542,501.368988 457.582214,501.452545 451.916656,501.380432 
	C441.129303,501.243134 433.030334,493.286774 432.735321,482.443237 
	C432.581238,476.780853 432.695923,471.110992 432.695740,465.444519 
	C432.693695,400.446411 432.450043,335.446655 432.888763,270.451538 
	C432.980774,256.817139 424.727753,244.259109 407.208008,244.992645 
	C391.735382,245.640488 376.214539,245.142776 360.714996,245.142166 
	C344.850769,245.141541 337.637024,237.862091 337.676239,221.830444 
	C337.685150,218.188416 337.342896,214.532806 338.793243,210.981583 
	C341.885773,203.409531 348.361023,198.693970 356.557281,198.691269 
	C450.054535,198.660446 543.551819,198.653641 637.049072,198.707062 
	C648.360718,198.713516 656.286865,206.734100 656.299072,217.940903 
	C656.340149,255.773087 656.339478,293.605377 656.300476,331.437561 
	C656.288330,343.264404 648.355408,351.196686 636.570557,351.318024 
	C631.404663,351.371216 626.236572,351.391541 621.071411,351.308197 
	C609.895447,351.127960 601.750061,342.839783 601.714844,331.409821 
	C601.638306,306.577423 601.698303,281.744690 601.675476,256.912079 
	C601.666565,247.207565 599.704102,245.219437 589.996826,245.161499 
	C578.498169,245.092865 566.998962,245.113235 555.000000,245.095062 
z"/>
<path fill="#000000" opacity="1.000000" stroke="none" 
	d="
M804.082275,507.261963 
	C743.019409,505.015289 694.600403,465.582367 679.453857,406.483765 
	C668.990295,365.657043 668.789673,324.944733 682.833923,285.120453 
	C701.012207,233.573792 737.217285,202.626740 791.940369,194.527267 
	C824.531372,189.703537 854.464355,196.384003 881.583496,215.213699 
	C894.243774,224.004120 895.700867,235.645142 885.705811,247.521027 
	C875.207153,259.995148 866.829285,261.248749 853.192810,252.560730 
	C819.373352,231.013763 765.777466,237.798111 742.161255,285.620056 
	C731.003540,308.214142 728.267090,332.255585 729.075256,357.041962 
	C729.819702,379.872894 734.418030,401.618378 746.370422,421.370422 
	C770.740906,461.643982 822.559631,471.595490 859.936218,443.052612 
	C867.284851,437.440857 875.180115,435.110748 883.075562,439.782593 
	C891.613037,444.834412 898.750793,451.749786 898.373779,463.179047 
	C898.171509,469.313080 895.362915,473.992981 890.902954,477.834747 
	C873.968506,492.421600 854.465088,501.596436 832.419250,505.283051 
	C823.207336,506.823486 813.922180,507.585052 804.082275,507.261963 
z"/>
<path fill="#000000" opacity="1.000000" stroke="none" 
	d="
M646.507446,153.448395 
	C636.603149,163.024521 622.102356,165.202560 610.216980,159.130264 
	C600.440430,154.135406 594.913696,142.301971 597.217163,131.296310 
	C599.883545,118.556786 609.075867,110.511848 621.867676,109.722733 
	C636.979187,108.790520 648.772461,116.270393 651.706604,129.169846 
	C653.663208,137.771317 652.748474,146.074402 646.507446,153.448395 
z"/>
</svg>